<svg width="21" height="20" viewBox="0 0 21 20" fill="none" xmlns="http://www.w3.org/2000/svg">
<path fill-rule="evenodd" clip-rule="evenodd" d="M15.4048 5.1372C15.2667 4.99902 15.0792 4.92139 14.8838 4.92139L7.44058 4.92139C7.03363 4.92139 6.70374 5.25128 6.70374 5.65823C6.70374 6.06518 7.03363 6.39507 7.44058 6.39507L13.1049 6.39507L5.67901 13.821C5.39126 14.1087 5.39126 14.5753 5.67901 14.863C5.96677 15.1508 6.43331 15.1508 6.72106 14.863L14.147 7.43712L14.147 13.1015C14.147 13.5084 14.4769 13.8383 14.8838 13.8383C15.2908 13.8383 15.6206 13.5084 15.6206 13.1015L15.6207 5.65823C15.6207 5.46281 15.543 5.27539 15.4048 5.1372Z" fill="#282F45"/>
</svg>
