<svg width="122" height="36" viewBox="0 0 122 36" fill="none" xmlns="http://www.w3.org/2000/svg">
<path d="M2.89085 18.8851C0.319449 18.3679 0.0179802 16.5732 0.000246415 14.867C-0.0219208 12.6479 1.4544 11.0565 3.25882 10.1282C6.677 8.3733 10.1351 6.52116 13.7927 5.42931C18.8734 3.91752 24.127 2.89196 29.3629 1.99019C34.0358 1.18125 38.7751 0.624278 43.51 0.310426C48.3647 -0.0078458 53.2547 -0.0697493 58.1182 0.071705C63.9571 0.244102 69.8003 0.637523 75.6215 1.15029C79.4475 1.48625 83.2514 2.12279 87.042 2.75049C92.5395 3.66553 98.0636 4.49215 103.486 5.73872C108.571 6.90572 113.47 8.76673 117.606 12.0997C120.958 14.7962 122.722 18.4387 121.72 22.6514C121.166 24.9809 119.566 26.5016 117.535 27.3193C113.833 28.8046 110.065 30.2413 106.203 31.2049C97.5182 33.3798 88.6026 34.1268 79.7047 34.9623C66.5994 36.1912 53.4676 36.0453 40.3313 35.9171C31.5974 35.8331 22.8945 35.1701 14.3025 33.5787C11.6868 33.0925 8.92033 32.7653 6.71247 30.9706C6.41986 30.7319 6.03859 30.5153 5.90116 30.2015C5.70165 29.7418 5.51545 29.1494 5.65288 28.7206C5.73269 28.4775 6.51296 28.2565 6.90311 28.3449C8.48584 28.7029 10.0198 29.2909 11.6114 29.5959C14.4799 30.1484 17.366 30.6258 20.2611 31.006C23.963 31.4923 27.6694 31.9387 31.389 32.226C34.5501 32.4692 37.7333 32.5266 40.9032 32.5532C46.4051 32.6018 51.9114 32.615 57.4133 32.5399C62.5472 32.4692 67.6856 32.3631 72.8107 32.089C76.282 31.9034 79.7357 31.3906 83.1982 31.0458C85.7607 30.7894 88.341 30.67 90.8858 30.3031C93.8163 29.8832 96.6981 29.0124 99.633 28.7958C102.253 28.6013 104.82 28.199 107.267 27.4033C110.641 26.3071 113.988 25.034 117.167 23.4735C118.856 22.6425 120.115 19.8532 118.617 17.559C116.551 14.3939 113.527 12.4401 110.154 11.3527C104.505 9.53589 98.7463 7.91358 92.9208 6.81288C82.7992 4.89441 72.5446 3.71859 62.2413 3.40474C55.3695 3.19256 48.4666 3.26771 41.6037 3.68323C32.7235 4.22694 23.9054 5.52213 15.4419 8.40426C12.0769 9.54916 8.88929 11.2378 5.67061 12.7849C4.86816 13.1695 4.17654 13.8812 3.58246 14.5708C2.88641 15.3797 2.24356 16.2682 2.85095 17.4883C3.02828 17.8463 2.87755 18.3635 2.87755 18.8895L2.89085 18.8851Z" fill="#82B019"/>
</svg>
