<svg width="219" height="61" viewBox="0 0 219 61" fill="none" xmlns="http://www.w3.org/2000/svg">
<path d="M85.9321 52.3925C87.225 52.1041 88.5041 51.6371 89.804 51.5547C101.295 50.8681 112.821 50.5454 124.278 49.5222C133.252 48.7189 142.171 47.2151 151.077 45.7731C161.296 44.1183 171.577 42.6489 181.63 40.2662C190.798 38.0895 200.07 35.8579 208.415 31.1406C209.446 30.5569 210.462 29.9527 211.451 29.3072C216.83 25.7778 215.482 21.4313 211.554 18.1834C206.486 13.9949 200.236 12.2851 193.951 10.7882C182.004 7.9386 169.855 6.46916 157.618 5.56965C136.813 4.04528 116.015 3.84615 95.1762 4.90359C76.9645 5.82371 58.9394 8.07593 41.0664 11.5298C31.767 13.3288 22.5505 15.6154 14.0254 19.852C11.1975 21.2597 8.55632 23.2235 6.19861 25.3384C3.28085 27.9614 3.48828 31.3191 6.19169 34.2168C10.7066 39.0577 16.6804 41.5365 22.5643 44.0908C33.5162 48.8425 44.9729 52.0903 56.6439 54.5073C63.3299 55.8875 70.1264 56.7252 76.8608 57.8513C78.4994 58.126 80.1104 58.5586 81.8597 58.95C73.8116 61.9644 65.9157 59.8701 58.0959 58.6204C47.0748 56.8557 36.2819 54.0816 25.9176 49.8724C18.0701 46.6864 10.3678 43.1844 3.95844 37.5196C-2.22969 32.047 -0.604874 24.9744 4.98864 20.6005C13.1404 14.2215 22.9722 11.468 32.9493 9.31877C38.3285 8.15833 43.7145 7.01849 49.1352 6.07777C54.542 5.14393 59.9834 4.42294 65.4248 3.73629C66.7523 3.56463 68.1421 3.88048 68.8957 3.92855C70.562 3.57836 71.7236 3.33803 72.8783 3.08397C74.6344 2.70631 76.6119 2.74065 78.2021 2.72005C80.5529 2.68571 82.9383 0.921019 85.5241 2.52778C86.499 3.13204 88.4073 2.16385 89.9008 2.04026C93.7174 1.71753 97.5409 1.44287 101.364 1.1888C105.464 0.92101 109.571 0.570818 113.678 0.502153C116.147 0.460954 118.615 1.02401 121.09 1.08581C122.95 1.13388 124.817 0.666959 126.677 0.694425C129.712 0.735624 132.741 1.07208 135.776 1.12701C137.712 1.16134 139.8 0.385428 141.563 0.872951C146.189 2.14326 150.849 1.42914 155.474 1.7244C161.123 2.08146 166.779 2.57585 172.393 3.31057C184.97 4.95167 197.616 6.46917 209.238 12.031C211.485 13.1091 213.663 14.5991 215.426 16.3432C221.068 21.9394 219.858 29.4102 213.006 33.4683C203.797 38.9203 193.716 41.9897 183.331 44.0428C170.008 46.6795 156.587 48.8493 143.236 51.3625C130.735 53.7177 118.131 54.8507 105.43 54.7683C99.5667 54.7271 93.7104 54.0541 87.8473 53.6216C87.2181 53.5735 86.6166 53.2233 86.0012 53.0104C85.9805 52.8044 85.9597 52.5984 85.939 52.3925H85.9321Z" fill="#82B019"/>
</svg>
