<svg width="199" height="7" viewBox="0 0 199 7" fill="none" xmlns="http://www.w3.org/2000/svg">
<path d="M198.058 1.46607C197.12 3.6156 194.107 3.6633 191.605 3.77166C180.254 4.25727 168.9 4.83306 157.504 4.9568C141.673 5.13362 125.802 5.09756 109.953 4.84997C96.0112 4.63455 82.2199 4.81935 68.4636 5.83493C62.0323 6.30952 55.4046 6.0581 48.835 5.16286C34.8503 3.25939 21.0143 3.47027 7.4506 5.7937C4.25919 6.33827 1.29956 5.55709 0.979156 4.03446C0.843295 3.37292 1.98265 2.14798 2.94756 2.04702C8.80802 1.42477 14.7538 0.939709 20.7313 0.622228C29.8037 0.141532 38.8924 0.540838 47.8149 1.68538C56.4819 2.79735 64.9875 2.3856 73.5491 1.83522C88.5585 0.869265 103.679 1.28609 118.814 1.49118C136.085 1.72438 153.346 1.56493 170.607 1.48213C178.548 1.44614 186.476 1.1708 194.419 1.05366C195.577 1.03806 196.772 1.30748 198.067 1.46176L198.058 1.46607Z" fill="#FC6802"/>
</svg>
