<svg width="177" height="64" viewBox="0 0 177 64" fill="none" xmlns="http://www.w3.org/2000/svg">
<path d="M125.195 24.1999V38.4799H127.955V24.1999H133.427V21.6799H119.723V24.1999H125.195Z" fill="#82B019"/>
<path fill-rule="evenodd" clip-rule="evenodd" d="M138.59 38.4799V31.3519H139.301L145.046 38.4799H148.526L142.631 31.3355C143.477 31.2803 144.234 31.0858 144.902 30.7519C145.702 30.3519 146.318 29.7919 146.75 29.0719C147.198 28.3519 147.422 27.5039 147.422 26.5279C147.422 25.5999 147.198 24.7759 146.75 24.0559C146.318 23.3199 145.702 22.7439 144.902 22.3279C144.102 21.8959 143.174 21.6799 142.118 21.6799H135.83V38.4799H138.59ZM141.974 29.0719H138.59V24.0799H141.998C142.846 24.0799 143.502 24.3199 143.966 24.7999C144.43 25.2799 144.662 25.8719 144.662 26.5759C144.662 27.3599 144.422 27.9759 143.942 28.4239C143.478 28.8559 142.822 29.0719 141.974 29.0719Z" fill="#82B019"/>
<path d="M150.572 21.6799V38.4799H161.876V35.9599H153.332V31.1119H161.06V28.6879H153.332V24.1999H161.756V21.6799H150.572Z" fill="#82B019"/>
<path d="M164.728 21.6799V38.4799H176.032V35.9599H167.488V31.1119H175.216V28.6879H167.488V24.1999H175.912V21.6799H164.728Z" fill="#82B019"/>
<path d="M56.2439 38.0479C57.2679 38.4959 58.3559 38.7199 59.5079 38.7199C61.0919 38.7199 62.4999 38.3919 63.7319 37.7359C64.9639 37.0799 65.9319 36.0879 66.6359 34.7599C67.3559 33.4319 67.7159 31.7679 67.7159 29.7679V29.3839H59.4119V31.9039H64.7697C64.6687 32.5603 64.4827 33.1443 64.2119 33.6559C63.7799 34.4559 63.1559 35.0639 62.3399 35.4799C61.5399 35.8799 60.5799 36.0799 59.4599 36.0799C58.4039 36.0799 57.4599 35.8239 56.6279 35.3119C55.7959 34.7999 55.1319 34.0959 54.6359 33.1999C54.1559 32.2879 53.9159 31.2399 53.9159 30.0559C53.9159 28.8719 54.1559 27.8319 54.6359 26.9359C55.1159 26.0399 55.7879 25.3439 56.6519 24.8479C57.5319 24.3359 58.5479 24.0799 59.6999 24.0799C60.6599 24.0799 61.5559 24.2719 62.3879 24.6559C63.2199 25.0239 63.8839 25.5599 64.3799 26.2639L66.2519 24.3919C65.4839 23.4479 64.5319 22.7199 63.3959 22.2079C62.2599 21.6959 61.0279 21.4399 59.6999 21.4399C58.4839 21.4399 57.3479 21.6639 56.2919 22.1119C55.2519 22.5439 54.3399 23.1599 53.5559 23.9599C52.7879 24.7439 52.1799 25.6559 51.7319 26.6959C51.2999 27.7359 51.0839 28.8559 51.0839 30.0559C51.0839 31.2559 51.2999 32.3839 51.7319 33.4399C52.1799 34.4799 52.7879 35.3999 53.5559 36.1999C54.3239 36.9839 55.2199 37.5999 56.2439 38.0479Z" fill="#282F45"/>
<path d="M70.1271 38.4799V26.9599H72.7671V38.4799H70.1271Z" fill="#282F45"/>
<path d="M71.4471 24.8479C70.9991 24.8479 70.6231 24.6959 70.3191 24.3919C70.0311 24.0879 69.8871 23.7119 69.8871 23.2639C69.8871 22.8159 70.0311 22.4399 70.3191 22.1359C70.6231 21.8319 70.9991 21.6799 71.4471 21.6799C71.9111 21.6799 72.2871 21.8319 72.5751 22.1359C72.8631 22.4399 73.0071 22.8159 73.0071 23.2639C73.0071 23.7119 72.8631 24.0879 72.5751 24.3919C72.2871 24.6959 71.9111 24.8479 71.4471 24.8479Z" fill="#282F45"/>
<path d="M87.9865 38.4799V26.9599H90.6265V38.4799H87.9865Z" fill="#282F45"/>
<path d="M89.3065 24.8479C88.8585 24.8479 88.4825 24.6959 88.1785 24.3919C87.8905 24.0879 87.7465 23.7119 87.7465 23.2639C87.7465 22.8159 87.8905 22.4399 88.1785 22.1359C88.4825 21.8319 88.8585 21.6799 89.3065 21.6799C89.7705 21.6799 90.1465 21.8319 90.4345 22.1359C90.7225 22.4399 90.8665 22.8159 90.8665 23.2639C90.8665 23.7119 90.7225 24.0879 90.4345 24.3919C90.1465 24.6959 89.7705 24.8479 89.3065 24.8479Z" fill="#282F45"/>
<path d="M101.483 31.8319V38.4799H104.123V31.2559C104.123 30.5039 103.931 29.7839 103.547 29.0959C103.163 28.3919 102.635 27.8239 101.963 27.3919C101.291 26.9439 100.523 26.7199 99.6593 26.7199C98.8113 26.7199 98.0433 26.9199 97.3553 27.3199C96.9184 27.5696 96.5424 27.8834 96.2273 28.2615V26.9599H93.5873V38.4799H96.2273V31.8319C96.2273 31.3199 96.3393 30.8639 96.5633 30.4639C96.7873 30.0639 97.0993 29.7519 97.4993 29.5279C97.8993 29.3039 98.3553 29.1919 98.8673 29.1919C99.6353 29.1919 100.259 29.4399 100.739 29.9359C101.235 30.4319 101.483 31.0639 101.483 31.8319Z" fill="#282F45"/>
<path fill-rule="evenodd" clip-rule="evenodd" d="M108.414 42.8479C109.326 43.2959 110.39 43.5199 111.606 43.5199C112.806 43.5199 113.862 43.2879 114.774 42.8239C115.686 42.3599 116.398 41.7119 116.91 40.8799C117.422 40.0639 117.678 39.1039 117.678 37.9999V26.9599H115.038V28.1755C114.719 27.8131 114.335 27.5119 113.886 27.2719C113.198 26.9039 112.398 26.7199 111.486 26.7199C110.462 26.7199 109.534 26.9759 108.702 27.4879C107.886 27.9839 107.238 28.6639 106.758 29.5279C106.294 30.3919 106.062 31.3679 106.062 32.4559C106.062 33.5439 106.294 34.5279 106.758 35.4079C107.238 36.2879 107.886 36.9839 108.702 37.4959C109.534 37.9919 110.462 38.2399 111.486 38.2399C112.382 38.2399 113.174 38.0559 113.862 37.6879C114.322 37.4419 114.714 37.1316 115.038 36.7569V37.9999C115.038 38.9279 114.734 39.6559 114.126 40.1839C113.518 40.7279 112.694 40.9999 111.654 40.9999C110.822 40.9999 110.11 40.8559 109.518 40.5679C108.926 40.2799 108.398 39.8479 107.934 39.2719L106.206 40.9999C106.766 41.7999 107.502 42.4159 108.414 42.8479ZM113.694 35.3359C113.214 35.6079 112.654 35.7439 112.014 35.7439C111.374 35.7439 110.806 35.6079 110.31 35.3359C109.83 35.0639 109.454 34.6799 109.182 34.1839C108.91 33.6879 108.774 33.1199 108.774 32.4799C108.774 31.8239 108.91 31.2559 109.182 30.7759C109.454 30.2799 109.83 29.8959 110.31 29.6239C110.806 29.3519 111.374 29.2159 112.014 29.2159C112.654 29.2159 113.214 29.3519 113.694 29.6239C114.174 29.8959 114.542 30.2799 114.798 30.7759C115.07 31.2559 115.206 31.8239 115.206 32.4799C115.206 33.1359 115.07 33.7119 114.798 34.2079C114.542 34.6879 114.174 35.0639 113.694 35.3359Z" fill="#282F45"/>
<path d="M74.3597 26.9599L79.6157 38.4799H81.1517L86.4077 26.9599H83.5997L80.4343 34.3271L77.2877 26.9599H74.3597Z" fill="#282F45"/>
<circle cx="14.2709" cy="6.48649" r="6.48649" fill="#82B019"/>
<circle cx="27.7239" cy="34.9309" r="6.48649" fill="#82B019"/>
<circle cx="22.6788" cy="13.7418" r="3.84384" fill="#82B019"/>
<circle cx="23.3994" cy="22.054" r="3.41141" fill="#8DA900"/>
<circle cx="21.0451" cy="18.2583" r="0.768769" fill="#8DA900"/>
<circle cx="24.8889" cy="27.4835" r="0.768769" fill="#82B019"/>
<ellipse cx="9.6579" cy="13.6937" rx="1.77778" ry="1.77778" fill="#A0C000"/>
<circle cx="9.03314" cy="22.8709" r="1.53754" fill="#8DA900"/>
<circle cx="19.9877" cy="26.4264" r="1.72973" fill="#A0C000"/>
<circle cx="16.7212" cy="25.6577" r="1.24925" fill="#A0C000"/>
<circle cx="21.6213" cy="29.5976" r="1.24925" fill="#A0C000"/>
<circle cx="20.4682" cy="38.5345" r="1.24925" fill="#82B019"/>
<circle cx="19.0752" cy="43.0031" r="1.68168" fill="#644B2E"/>
<circle cx="23.1593" cy="47.8559" r="1.92192" fill="#644B2E"/>
<circle cx="17.8261" cy="52.9009" r="2.16216" fill="#644B2E"/>
<circle cx="18.3546" cy="47.6637" r="2.69069" fill="#644B2E"/>
<circle cx="22.9671" cy="52.7569" r="2.69069" fill="#644B2E"/>
<circle cx="19.5556" cy="59.6276" r="4.37237" fill="#644B2E"/>
<circle cx="22.3418" cy="44.2523" r="1.48949" fill="#644B2E"/>
<circle cx="28.4924" cy="24.0721" r="1.00901" fill="#82B019"/>
<circle cx="26.4747" cy="25.7057" r="1.00901" fill="#8DA900"/>
<circle cx="20.228" cy="33.1051" r="1.00901" fill="#8DA900"/>
<circle cx="19.844" cy="35.6036" r="1.00901" fill="#A0C000"/>
<circle cx="17.057" cy="40.7928" r="1.00901" fill="#644B2E"/>
<circle cx="23.1112" cy="41.5615" r="1.00901" fill="#644B2E"/>
<circle cx="18.0174" cy="30.4144" r="2.25826" fill="#82B019"/>
<ellipse cx="29.8865" cy="26.6187" rx="1.82583" ry="1.82583" fill="#A0C000"/>
<circle cx="12.0117" cy="28.2523" r="3.84384" fill="#82B019"/>
<circle cx="5.67026" cy="18.066" r="3.84384" fill="#A0C000"/>
<circle cx="4.37269" cy="25.5136" r="3.31532" fill="#8DA900"/>
<circle cx="30.2221" cy="17.8258" r="4.08408" fill="#A0C000"/>
<circle cx="5.14114" cy="34.4505" r="5.14114" fill="#82B019"/>
<circle cx="14.9429" cy="18.8828" r="5.14114" fill="#8DA900"/>
<circle cx="36.0838" cy="24.4565" r="4.08408" fill="#82B019"/>
<circle cx="14.5592" cy="36.0841" r="4.08408" fill="#A0C000"/>
</svg>
