<svg width="146" height="140" viewBox="0 0 146 140" fill="none" xmlns="http://www.w3.org/2000/svg">
<path d="M142.572 48.1724C138.329 35.216 130.631 24.7936 120.965 17.9296C116.969 14.2687 112.548 11.0723 107.783 8.47013C91.4411 -0.463392 71.4452 -2.39626 53.6018 2.98571C50.5513 3.90775 47.5626 5.02786 44.6767 6.38701C43.3605 7.00853 42.1129 7.74616 40.8584 8.45647C37.9588 10.0957 34.8878 11.3387 32.0499 13.1281C29.3147 14.8629 26.7098 16.8026 24.2695 18.9335C18.7787 23.7213 14.0967 29.4106 10.3608 35.6532C6.65224 41.8479 3.86227 48.5822 2.11426 55.5828C0.373102 62.5698 -0.332955 69.8164 0.146892 77.0014C0.647304 84.5007 2.47757 91.8975 5.54174 98.7683C8.27001 104.874 11.9854 110.605 16.777 115.304C18.2371 116.738 19.6355 117.475 21.219 118.637C23.5154 120.33 25.9078 121.894 28.3824 123.329C29.8426 124.176 31.3369 124.982 32.845 125.733C37.1088 129.653 41.8524 132.822 46.8771 135.138C59.8398 141.121 74.4546 141.285 88.3564 137.255C91.7976 136.258 95.1977 135.001 98.5429 133.512C98.8925 133.355 99.009 132.863 98.961 132.351C102.142 131.306 105.274 129.981 108.325 128.396C120.602 122.017 131.885 111.24 139.049 97.095C142.675 89.9441 145.136 81.9258 145.808 73.7094C146.528 64.8783 145.177 56.1156 142.572 48.1724ZM56.2273 135.916C50.6679 134.564 45.2799 132.235 40.3238 129.011C41.5371 129.476 42.7641 129.906 44.0049 130.316C52.7724 133.177 62.0266 134.571 71.2465 134.332C76.422 135.342 81.7345 135.541 87.0334 134.96C76.799 137.808 66.2766 138.361 56.2273 135.916ZM141.873 85.573C137.068 100.749 126.813 113.207 115.433 121.211C106.529 127.481 96.6098 131.327 86.6496 132.406C87.7258 132.173 88.7883 131.921 89.8371 131.654C94.9577 130.343 99.9207 128.451 104.623 126.047C113.973 121.252 122.275 114.402 128.595 106.022C129.699 104.56 130.734 103.058 131.714 101.507C135.148 96.0705 137.801 90.1558 139.625 83.9953C140.941 79.5353 141.825 74.9456 142.243 70.3218C142.744 64.81 142.6 59.2437 141.77 53.7661C141.585 52.5367 141.263 51.642 140.783 50.5287C139.727 48.0631 139.22 45.3175 138.219 42.8041C137.081 39.9628 135.745 37.1967 134.223 34.5399C133.825 33.8432 133.414 33.1466 132.989 32.4636C134.463 34.5057 135.834 36.6845 137.068 38.9793C140.619 45.5839 143.148 53.206 144.135 61.2175C145.129 69.3383 144.375 77.6503 141.866 85.5661L141.873 85.573Z" fill="#F8F6F2"/>
<path d="M97.44 100.736H50.3463C50.243 100.736 50.1592 100.651 50.1592 100.546V52.8391C50.1592 48.5127 53.6356 44.9933 57.9081 44.9933H89.8786C94.1517 44.9933 97.6276 48.5132 97.6276 52.8391V100.546C97.6271 100.651 97.5433 100.736 97.44 100.736Z" fill="white" stroke="#282F45"/>
<path d="M103.978 100.736L44.6855 100.736" stroke="#282F45"/>
<rect x="55.666" y="80.8433" width="36.4875" height="11" rx="2" fill="#FC6802" fill-opacity="0.2"/>
<path d="M64.5292 86.4989C64.5292 86.9911 64.1354 87.3878 63.6526 87.3878C63.1698 87.3878 62.776 86.9911 62.776 86.4989C62.776 86.0067 63.1698 85.61 63.6526 85.61C64.1355 85.61 64.5292 86.0067 64.5292 86.4989ZM69.5023 86.4989C69.5023 86.9911 69.1086 87.3878 68.6258 87.3878C68.1429 87.3878 67.7492 86.9911 67.7492 86.4989C67.7492 86.0067 68.1429 85.61 68.6258 85.61C69.1086 85.61 69.5023 86.0067 69.5023 86.4989ZM74.4756 86.4989C74.4756 86.9911 74.0819 87.3878 73.599 87.3878C73.1162 87.3878 72.7224 86.9911 72.7224 86.4989C72.7224 86.0067 73.1162 85.61 73.599 85.61C74.0819 85.61 74.4756 86.0067 74.4756 86.4989ZM79.4487 86.4989C79.4487 86.9911 79.055 87.3878 78.5722 87.3878C78.0893 87.3878 77.6956 86.9911 77.6956 86.4989C77.6956 86.0067 78.0893 85.61 78.5722 85.61C79.055 85.61 79.4487 86.0067 79.4487 86.4989ZM84.4219 86.4989C84.4219 86.9911 84.0281 87.3878 83.5453 87.3878C83.0625 87.3878 82.6687 86.9911 82.6687 86.4989C82.6687 86.0067 83.0625 85.61 83.5453 85.61C84.0281 85.61 84.4219 86.0067 84.4219 86.4989Z" fill="#282F45" stroke="#282F45" stroke-width="0.22"/>
<rect x="59.666" y="95.2627" width="28" height="10.5035" rx="2" fill="#FC6802"/>
<path fill-rule="evenodd" clip-rule="evenodd" d="M68.11 101.779V99.4527H68.7552V101.779H68.11ZM68.4341 99.1528C68.3382 99.1528 68.2559 99.121 68.1872 99.0574C68.1196 98.9928 68.0858 98.9155 68.0858 98.8256C68.0858 98.7368 68.1196 98.6605 68.1872 98.5969C68.2559 98.5323 68.3382 98.5 68.4341 98.5C68.53 98.5 68.6118 98.5323 68.6795 98.5969C68.7481 98.6605 68.7825 98.7368 68.7825 98.8256C68.7825 98.9155 68.7481 98.9928 68.6795 99.0574C68.6118 99.121 68.53 99.1528 68.4341 99.1528ZM78.1954 98.6772H77.5396V100.636C77.5396 100.754 77.5133 100.859 77.4608 100.951C77.4093 101.043 77.3361 101.115 77.2412 101.167C77.1473 101.22 77.0367 101.246 76.9095 101.246C76.7833 101.246 76.6727 101.22 76.5778 101.167C76.4829 101.115 76.4092 101.043 76.3567 100.951C76.3052 100.859 76.2794 100.754 76.2794 100.636V98.6772H75.6236V100.692C75.6236 100.918 75.6771 101.116 75.7841 101.285C75.8912 101.455 76.0411 101.587 76.234 101.682C76.4268 101.776 76.652 101.823 76.9095 101.823C77.166 101.823 77.3906 101.776 77.5835 101.682C77.7764 101.587 77.9263 101.455 78.0333 101.285C78.1414 101.116 78.1954 100.918 78.1954 100.692V98.6772ZM78.7229 99.4527V102.652H79.3681V101.407H79.3878C79.4171 101.471 79.4595 101.535 79.515 101.599C79.5706 101.661 79.6418 101.713 79.7286 101.755C79.8165 101.796 79.923 101.817 80.0482 101.817C80.2249 101.817 80.3844 101.772 80.5268 101.681C80.6702 101.589 80.7833 101.454 80.8661 101.276C80.9499 101.098 80.9918 100.878 80.9918 100.619C80.9918 100.352 80.9489 100.131 80.863 99.954C80.7772 99.7763 80.6626 99.6435 80.5192 99.5557C80.3758 99.4668 80.2193 99.4224 80.0497 99.4224C79.9194 99.4224 79.8104 99.4446 79.7225 99.489C79.6357 99.5324 79.565 99.587 79.5105 99.6526C79.457 99.7172 79.4161 99.7808 79.3878 99.8434H79.359V99.4527H78.7229ZM79.4121 100.978C79.3737 100.875 79.3545 100.754 79.3545 100.616C79.3545 100.478 79.3737 100.357 79.4121 100.255C79.4504 100.153 79.5055 100.075 79.5771 100.019C79.6498 99.9636 79.7387 99.9358 79.8437 99.9358C79.9497 99.9358 80.0391 99.9646 80.1118 100.022C80.1845 100.08 80.2395 100.159 80.2769 100.261C80.3143 100.363 80.3329 100.482 80.3329 100.616C80.3329 100.751 80.3137 100.871 80.2754 100.975C80.238 101.078 80.183 101.159 80.1103 101.217C80.0376 101.275 79.9487 101.304 79.8437 101.304C79.7397 101.304 79.6514 101.275 79.5787 101.219C79.506 101.161 79.4504 101.081 79.4121 100.978ZM72.6164 100.434V101.779H71.9711V99.4527H72.5861V99.8631H72.6133C72.6648 99.7278 72.7512 99.6208 72.8723 99.542C72.9935 99.4623 73.1404 99.4224 73.3131 99.4224C73.4746 99.4224 73.6155 99.4577 73.7357 99.5284C73.8558 99.5991 73.9492 99.7001 74.0159 99.8313C74.0825 99.9616 74.1158 100.117 74.1158 100.298V101.779H73.4706V100.413C73.4716 100.271 73.4353 100.159 73.3616 100.08C73.2878 99.9989 73.1864 99.9586 73.0571 99.9586C72.9703 99.9586 72.8935 99.9772 72.8269 100.015C72.7613 100.052 72.7098 100.106 72.6724 100.178C72.6361 100.249 72.6174 100.334 72.6164 100.434ZM69.7825 102.614C69.932 102.671 70.1112 102.7 70.3202 102.7C70.5424 102.7 70.7388 102.666 70.9094 102.599C71.0811 102.532 71.2154 102.432 71.3123 102.299C71.4092 102.165 71.4577 102 71.4577 101.802V99.4527H70.817V99.8434H70.7928C70.7635 99.7808 70.7216 99.7172 70.6671 99.6526C70.6136 99.587 70.5429 99.5324 70.455 99.489C70.3672 99.4446 70.2581 99.4224 70.1279 99.4224C69.9572 99.4224 69.8002 99.4663 69.6568 99.5542C69.5145 99.642 69.4004 99.7743 69.3145 99.951C69.2287 100.128 69.1858 100.348 69.1858 100.611C69.1858 100.869 69.2277 101.082 69.3115 101.251C69.3963 101.418 69.5099 101.543 69.6523 101.625C69.7957 101.705 69.9547 101.746 70.1294 101.746C70.2526 101.746 70.3586 101.728 70.4475 101.691C70.5363 101.655 70.609 101.608 70.6656 101.55C70.7221 101.493 70.7645 101.432 70.7928 101.367H70.82V101.793C70.82 101.952 70.7741 102.066 70.6822 102.134C70.5913 102.202 70.4757 102.237 70.3354 102.237C70.2415 102.237 70.1617 102.224 70.0961 102.199C70.0314 102.174 69.9794 102.142 69.9401 102.102C69.9007 102.061 69.8719 102.018 69.8537 101.971L69.257 102.052C69.2832 102.174 69.3403 102.284 69.4281 102.382C69.516 102.48 69.6341 102.557 69.7825 102.614ZM70.5974 101.184C70.5257 101.235 70.4379 101.261 70.3339 101.261C70.2278 101.261 70.1385 101.235 70.0658 101.182C69.9941 101.129 69.939 101.054 69.9007 100.957C69.8633 100.859 69.8446 100.743 69.8446 100.608C69.8446 100.476 69.8633 100.359 69.9007 100.258C69.938 100.157 69.9931 100.079 70.0658 100.022C70.1385 99.9646 70.2278 99.9358 70.3339 99.9358C70.4379 99.9358 70.5262 99.9636 70.5989 100.019C70.6716 100.075 70.7272 100.153 70.7655 100.254C70.8039 100.354 70.8231 100.472 70.8231 100.608C70.8231 100.745 70.8034 100.862 70.764 100.96C70.7256 101.057 70.6701 101.131 70.5974 101.184ZM66.854 99.2846C66.9459 99.3522 66.9979 99.4471 67.01 99.5693H67.6386C67.6355 99.3845 67.5861 99.222 67.4901 99.0816C67.3942 98.9413 67.2599 98.8317 67.0872 98.7529C66.9156 98.6742 66.7146 98.6348 66.4844 98.6348C66.2582 98.6348 66.0563 98.6742 65.8786 98.7529C65.7009 98.8317 65.561 98.9413 65.459 99.0816C65.3581 99.222 65.3081 99.386 65.3091 99.5739C65.3081 99.8031 65.3833 99.9853 65.5348 100.121C65.6862 100.256 65.8927 100.355 66.1542 100.419L66.492 100.504C66.6051 100.531 66.7005 100.561 66.7783 100.595C66.857 100.628 66.9166 100.668 66.957 100.716C66.9984 100.763 67.0191 100.822 67.0191 100.892C67.0191 100.966 66.9964 101.032 66.9509 101.09C66.9055 101.148 66.8414 101.192 66.7586 101.225C66.6768 101.257 66.5803 101.273 66.4693 101.273C66.3562 101.273 66.2547 101.256 66.1648 101.222C66.076 101.186 66.0048 101.134 65.9513 101.066C65.8988 100.996 65.869 100.909 65.8619 100.805H65.2273C65.2323 101.028 65.2864 101.216 65.3894 101.367C65.4934 101.518 65.6378 101.631 65.8225 101.708C66.0083 101.785 66.2264 101.823 66.4768 101.823C66.7293 101.823 66.9449 101.785 67.1236 101.709C67.3033 101.633 67.4406 101.525 67.5356 101.387C67.6315 101.248 67.68 101.083 67.681 100.893C67.68 100.764 67.6562 100.649 67.6098 100.549C67.5643 100.449 67.5002 100.362 67.4174 100.289C67.3346 100.215 67.2367 100.153 67.1236 100.102C67.0105 100.052 66.8863 100.012 66.751 99.9813L66.4723 99.9146C66.4047 99.8995 66.341 99.8813 66.2815 99.8601C66.2219 99.8379 66.1694 99.8122 66.1239 99.7829C66.0785 99.7526 66.0427 99.7167 66.0164 99.6753C65.9912 99.6339 65.9796 99.5855 65.9816 99.5299C65.9816 99.4633 66.0008 99.4037 66.0391 99.3512C66.0785 99.2987 66.1351 99.2578 66.2088 99.2285C66.2825 99.1982 66.3728 99.1831 66.4799 99.1831C66.6374 99.1831 66.7621 99.2169 66.854 99.2846Z" fill="white"/>
<path d="M73.666 76.2536C78.0843 76.2536 81.666 72.6719 81.666 68.2536C81.666 63.8353 78.0843 60.2536 73.666 60.2536C69.2477 60.2536 65.666 63.8353 65.666 68.2536C65.666 72.6719 69.2477 76.2536 73.666 76.2536Z" fill="#FC6802" fill-opacity="0.2"/>
<path fill-rule="evenodd" clip-rule="evenodd" d="M75.5072 65.4971C75.5072 66.5266 74.6829 67.3612 73.666 67.3612C72.6492 67.3612 71.8249 66.5266 71.8249 65.4971C71.8249 64.4675 72.6492 63.6329 73.666 63.6329C74.6829 63.6329 75.5072 64.4675 75.5072 65.4971ZM77.5511 70.7149C77.9241 71.5267 77.3443 72.4577 76.4596 72.4577H70.8724C69.9878 72.4577 69.408 71.5271 69.7809 70.7149C70.4617 69.2325 71.9451 68.205 73.666 68.205C75.387 68.205 76.8703 69.2329 77.5511 70.7149Z" fill="#FC6802"/>
<path d="M111.452 88.1987L110.942 90.5229C110.698 91.6098 109.636 92.294 108.566 92.0532L106.27 91.5362C105.2 91.2949 104.525 90.2197 104.763 89.1363L105.27 86.806C105.507 85.7226 106.57 85.0384 107.645 85.2756L109.945 85.7983C111.015 86.0395 111.69 87.1153 111.452 88.1987Z" fill="#FC6802" fill-opacity="0.2"/>
<path d="M38.419 76.3054L38.1221 77.6575C37.9806 78.2899 37.3626 78.6876 36.74 78.5474L35.4046 78.2467C34.7821 78.1065 34.3893 77.4808 34.5278 76.8509L34.8227 75.4958C34.9612 74.8655 35.5792 74.4678 36.2048 74.606L37.5422 74.9097C38.1642 75.0494 38.557 75.6751 38.419 76.3054Z" fill="#FC6802" fill-opacity="0.2"/>
<path d="M76.6858 35.874L76.4039 37.158C76.2695 37.7584 75.6826 38.1363 75.0916 38.0032L73.8234 37.7177C73.232 37.5847 72.8588 36.9904 72.9902 36.3921L73.2701 35.105C73.4016 34.5067 73.9885 34.1288 74.5824 34.2598L75.8526 34.5483C76.4441 34.6809 76.8173 35.2752 76.6858 35.874Z" fill="#FC6802" fill-opacity="0.2"/>
<path d="M69.4007 48.986C69.4007 49.3547 69.1071 49.643 68.758 49.643C68.4088 49.643 68.1152 49.3547 68.1152 48.986C68.1152 48.6172 68.4088 48.3289 68.758 48.3289C69.1071 48.3289 69.4007 48.6172 69.4007 48.986ZM71.4883 48.9235C71.4883 48.5951 71.7545 48.3289 72.0829 48.3289H79.9277C80.2561 48.3289 80.5224 48.5951 80.5224 48.9235C80.5224 49.2519 80.2561 49.5182 79.9277 49.5182H72.0829C71.7545 49.5182 71.4883 49.2519 71.4883 48.9235Z" fill="#282F45" stroke="#282F45"/>
<rect x="111.166" y="11" width="33" height="33" rx="16.5" fill="#82B019"/>
<rect x="111.166" y="11" width="33" height="33" rx="16.5" stroke="white"/>
<path d="M127.478 33.5V22.3H129.286V33.5H127.478ZM125.238 23.948V22.3H129.126V23.948H125.238Z" fill="white"/>
</svg>
