<svg width="147" height="140" viewBox="0 0 147 140" fill="none" xmlns="http://www.w3.org/2000/svg">
<path d="M145.909 82.0786C147.999 68.6063 145.862 55.8267 140.357 45.3272C138.455 40.2526 135.962 35.3992 132.895 30.9202C122.377 15.5497 105.43 4.76322 87.085 1.47263C83.948 0.911828 80.7762 0.555549 77.5877 0.458947C76.1328 0.41638 74.6863 0.508377 73.2462 0.572919C69.9185 0.719711 66.6177 0.435725 63.2769 0.744416C60.0526 1.05101 56.8514 1.59928 53.7103 2.39258C46.6458 4.17143 39.8936 7.12054 33.7339 10.9916C27.6203 14.8324 22.081 19.5706 17.3497 25.0184C12.6306 30.4572 8.71662 36.5965 5.88755 43.2186C2.93441 50.13 1.21311 57.5529 0.830044 65.0664C0.4943 71.7457 1.20873 78.5376 3.34992 84.898C4.0013 86.8383 4.91345 88.1297 5.79864 89.8824C7.07784 92.4331 8.50141 94.9117 10.0571 97.3118C10.9747 98.7286 11.9415 100.124 12.9452 101.478C14.9688 106.905 17.7607 111.88 21.1901 116.221C30.0328 127.43 42.9857 134.2 57.2039 136.91C60.7233 137.581 64.3236 138.002 67.9804 138.191C68.3632 138.209 68.69 137.824 68.8794 137.345C72.1882 137.856 75.5812 138.094 79.0185 138.065C92.8536 137.943 107.796 133.451 120.593 124.09C127.067 119.359 132.895 113.327 137.218 106.308C141.862 98.7626 144.63 90.3396 145.909 82.0786ZM29.1717 121.153C24.8292 117.428 21.0821 112.91 18.1256 107.79C18.9966 108.754 19.8953 109.693 20.8155 110.621C27.3335 117.146 34.9509 122.583 43.2776 126.549C47.4327 129.796 52.0784 132.38 57.0648 134.265C46.6512 132.164 37.0211 127.888 29.1717 121.153ZM128.333 115.099C117.171 126.449 102.383 132.905 88.6117 134.882C77.8325 136.435 67.2479 135.366 57.8805 131.814C58.9451 132.094 60.0067 132.351 61.0623 132.589C66.2211 133.741 71.5025 134.304 76.7839 134.293C87.2917 134.257 97.7963 131.914 107.229 127.308C108.875 126.506 110.479 125.636 112.055 124.698C117.581 121.409 122.626 117.339 127.044 112.674C130.239 109.295 133.107 105.605 135.576 101.673C138.52 96.9866 140.915 91.9596 142.659 86.7011C143.051 85.5214 143.169 84.5778 143.246 83.368C143.423 80.6917 144.215 78.0144 144.462 75.3204C144.736 72.272 144.798 69.2004 144.646 66.1424C144.607 65.3412 144.556 64.5338 144.487 63.7324C144.875 66.2207 145.11 68.7842 145.169 71.3891C145.341 78.8857 144.141 86.8264 141.389 94.4151C138.594 102.104 134.154 109.172 128.33 115.09L128.333 115.099Z" fill="#F8F6F2"/>
<rect x="111.833" y="11" width="33" height="33" rx="16.5" fill="#82B019"/>
<rect x="111.833" y="11" width="33" height="33" rx="16.5" stroke="white"/>
<path d="M127.949 33.66C127.202 33.66 126.525 33.5267 125.917 33.26C125.319 32.9827 124.813 32.5827 124.397 32.06L125.645 30.812C125.869 31.1533 126.183 31.4253 126.589 31.628C126.994 31.8307 127.437 31.932 127.917 31.932C128.375 31.932 128.77 31.8467 129.101 31.676C129.431 31.5053 129.687 31.2653 129.869 30.956C130.061 30.6467 130.157 30.2893 130.157 29.884C130.157 29.4573 130.061 29.0947 129.869 28.796C129.687 28.4973 129.421 28.268 129.069 28.108C128.727 27.9373 128.311 27.852 127.821 27.852C127.629 27.852 127.431 27.868 127.229 27.9C127.026 27.9213 126.845 27.9587 126.685 28.012L127.501 26.956C127.725 26.8707 127.959 26.8013 128.205 26.748C128.461 26.684 128.706 26.652 128.941 26.652C129.517 26.652 130.034 26.7907 130.493 27.068C130.962 27.3453 131.33 27.7347 131.597 28.236C131.874 28.7267 132.013 29.308 132.013 29.98C132.013 30.7053 131.842 31.3453 131.501 31.9C131.159 32.4547 130.685 32.8867 130.077 33.196C129.469 33.5053 128.759 33.66 127.949 33.66ZM126.685 28.012V26.924L129.677 23.436L131.885 23.388L128.765 26.972L126.685 28.012ZM124.957 23.948V22.3H131.885V23.388L130.301 23.948H124.957Z" fill="white"/>
<path d="M79.2889 85.2286L78.9878 86.5813C78.8441 87.2139 78.218 87.6121 77.5873 87.4719L76.234 87.171C75.6029 87.0306 75.2049 86.4048 75.3451 85.7743L75.644 84.418C75.7842 83.7875 76.4106 83.3893 77.0446 83.5273L78.4002 83.8315C79.0307 83.9719 79.429 84.598 79.2889 85.2286Z" fill="#FC6802" fill-opacity="0.2"/>
<path d="M44.236 48.2269L43.939 49.579C43.7976 50.2113 43.1795 50.609 42.557 50.4688L41.2216 50.1681C40.5991 50.028 40.2063 49.4022 40.3447 48.7724L40.6397 47.4173C40.7781 46.7869 41.3962 46.3892 42.0217 46.5274L43.3591 46.8311C43.9812 46.9708 44.374 47.5966 44.236 48.2269Z" fill="#FC6802" fill-opacity="0.2"/>
<path d="M103.282 36.6603L102.906 38.3516C102.726 39.1424 101.943 39.6402 101.155 39.4649L99.4636 39.0889C98.6746 38.9136 98.1768 38.1308 98.3521 37.3427L98.7255 35.6474C98.9008 34.8593 99.6837 34.3616 100.476 34.5342L102.17 34.9142C102.959 35.0888 103.457 35.8716 103.282 36.6603Z" fill="#FC6802" fill-opacity="0.2"/>
<path fill-rule="evenodd" clip-rule="evenodd" d="M65.1141 95.6266L65.6261 96.7067C65.6898 96.8409 65.6796 96.9987 65.6001 97.1242C65.5206 97.2497 65.3821 97.326 65.2335 97.326H54.502C54.3294 97.326 54.1733 97.224 54.1045 97.0655L49.8518 87.3127L46.7383 80.1625C46.0045 78.3078 45.7923 76.3033 46.1184 74.3521L51.0395 51.6704C51.163 50.9317 51.6134 50.3364 52.3385 49.9692C53.7685 49.2444 55.5423 49.8059 56.2919 51.2208C56.5733 51.7545 56.7106 52.3591 56.6898 52.9691L56.244 64.6021L63.2516 79.4163C64.8247 82.7435 65.4241 86.4332 64.9852 90.0871L64.6562 92.8129C64.5408 93.7777 64.6992 94.7511 65.1141 95.6266Z" fill="white"/>
<path fill-rule="evenodd" clip-rule="evenodd" d="M65.1141 95.6266L65.6261 96.7067C65.6898 96.8409 65.6796 96.9987 65.6001 97.1242C65.5206 97.2497 65.3821 97.326 65.2335 97.326H54.502C54.3294 97.326 54.1733 97.224 54.1045 97.0655L49.8518 87.3127V87.3121L46.7383 80.1625C46.0045 78.3078 45.7923 76.3033 46.1184 74.3521L51.0395 51.6704C51.163 50.9317 51.6134 50.3364 52.3385 49.9692C53.7685 49.2444 55.5423 49.8059 56.2919 51.2208C56.5733 51.7545 56.7106 52.3591 56.6898 52.9691L56.244 64.6021L63.2516 79.4163C64.8247 82.7435 65.4241 86.4332 64.9852 90.0871L64.6562 92.8129C64.5408 93.7777 64.6992 94.7511 65.1141 95.6266ZM47.5395 79.83L54.7868 96.4587V96.4593H64.5486L64.33 95.9984C63.8452 94.9749 63.6599 93.8375 63.7946 92.7097L64.1236 89.9836C64.5431 86.4922 63.9701 82.9661 62.4672 79.7872L55.5844 65.2365C55.5386 65.2563 55.4885 65.2684 55.4358 65.2712C54.4727 65.3221 53.7234 66.2516 53.4805 67.1432C53.199 68.1777 53.3772 69.3434 53.5344 70.3719L53.5346 70.3727C53.8887 72.6891 54.386 74.7057 54.9125 76.8406L54.9133 76.8439C55.4213 78.9046 55.9467 81.0354 56.4344 83.7392C56.4769 83.9752 56.3202 84.2007 56.0846 84.2435C56.0586 84.2478 56.0325 84.2501 56.0071 84.2501C55.8015 84.2501 55.6188 84.1032 55.5809 83.8936C55.0975 81.2149 54.5754 79.0968 54.0703 77.0484C53.5389 74.8939 53.0373 72.8588 52.677 70.5037C52.5067 69.39 52.3139 68.1274 52.6438 66.9157C52.9579 65.7616 53.949 64.485 55.3835 64.4053L55.8233 52.9379C55.8389 52.4799 55.736 52.0257 55.5252 51.6262C55.0048 50.644 53.7246 50.2396 52.7306 50.7429C52.2478 50.9872 51.9734 51.3443 51.8913 51.8341L46.9702 74.5157C46.6738 76.2909 46.8693 78.1358 47.5395 79.83Z" fill="#282F45"/>
<path d="M67.8599 96.8915H52.4898C51.2139 96.8915 50.1794 97.9257 50.1794 99.2018V105.066H70.1702V99.2018C70.1702 97.9257 69.1358 96.8915 67.8599 96.8915Z" fill="#FC6802" fill-opacity="0.2"/>
<path d="M67.8599 96.4578H52.4898C50.9768 96.4578 49.7457 97.6886 49.7457 99.2016V105.066C49.7457 105.305 49.9397 105.5 50.1794 105.5H61.5684C61.8081 105.5 62.0021 105.305 62.0021 105.066C62.0021 104.827 61.8081 104.632 61.5684 104.632H50.6131V99.2019C50.6131 98.1671 51.455 97.3255 52.4898 97.3255H67.8599C68.8946 97.3255 69.7366 98.1671 69.7366 99.2019V104.633H65.9346C65.695 104.633 65.501 104.827 65.501 105.066C65.501 105.306 65.695 105.5 65.9346 105.5H70.1702C70.4099 105.5 70.6039 105.306 70.6039 105.066V99.2019C70.6039 97.6886 69.3729 96.4578 67.8599 96.4578Z" fill="#282F45"/>
<path d="M54.3254 99.1076C53.2918 99.1076 52.4542 99.9452 52.4542 100.979C52.4542 102.012 53.2921 102.85 54.3254 102.85C55.3587 102.85 56.1966 102.012 56.1966 100.979C56.1966 99.9455 55.359 99.1076 54.3254 99.1076Z" fill="white"/>
<path d="M54.3254 98.674C53.0544 98.674 52.0205 99.7078 52.0205 100.979C52.0205 102.25 53.0544 103.284 54.3254 103.284C55.5964 103.284 56.6302 102.25 56.6302 100.979C56.6302 99.7081 55.5964 98.674 54.3254 98.674ZM54.3254 102.417C53.5326 102.417 52.8879 101.772 52.8879 100.979C52.8879 100.186 53.5329 99.5413 54.3254 99.5413C55.1179 99.5413 55.7629 100.186 55.7629 100.979C55.7629 101.772 55.1182 102.417 54.3254 102.417Z" fill="#282F45"/>
<path fill-rule="evenodd" clip-rule="evenodd" d="M102.618 51.6904L107.532 74.3316C107.862 76.3034 107.65 78.3078 106.922 80.1484L99.5496 97.065C99.4808 97.2231 99.3247 97.3255 99.1521 97.3255H88.4203C88.2714 97.3255 88.1332 97.2492 88.0537 97.1237C87.9742 96.9982 87.9647 96.8406 88.0283 96.7062L88.5406 95.626C88.9555 94.7503 89.1139 93.7771 88.9985 92.8118L88.6695 90.0868C88.2306 86.4326 88.83 82.7429 90.4031 79.416L97.4105 64.6019L96.9643 52.9709C96.9435 52.3588 97.0809 51.7546 97.3616 51.2214C98.1116 49.8062 99.8847 49.2442 101.316 49.969C102.041 50.3362 102.491 50.9315 102.618 51.6904Z" fill="white"/>
<path fill-rule="evenodd" clip-rule="evenodd" d="M102.618 51.6904L107.532 74.3316C107.862 76.3034 107.65 78.3078 106.922 80.1484L99.5496 97.065C99.4808 97.2231 99.3247 97.3255 99.1521 97.3255H88.4203C88.2714 97.3255 88.1332 97.2492 88.0537 97.1237C87.9742 96.9982 87.9647 96.8406 88.0283 96.7062L88.5406 95.626C88.9555 94.7503 89.1139 93.7771 88.9985 92.8118L88.6695 90.0868C88.2306 86.4326 88.83 82.7429 90.4031 79.416L97.4105 64.6019L96.9643 52.9709C96.9435 52.3588 97.0809 51.7546 97.3616 51.2214C98.1116 49.8062 99.8847 49.2442 101.316 49.969C102.041 50.3362 102.491 50.9315 102.618 51.6904ZM98.8676 96.459L106.12 79.8165C106.785 78.1355 106.981 76.2907 106.681 74.4952L101.767 51.8543C101.681 51.344 101.407 50.9873 100.924 50.7427C99.9293 50.239 98.6493 50.6441 98.1286 51.6268C97.9187 52.0255 97.8158 52.4797 97.8314 52.9397L98.2712 64.4053C99.7055 64.4852 100.696 65.7616 101.01 66.9156C101.34 68.1282 101.147 69.3902 100.977 70.5033C100.617 72.8556 100.116 74.8884 99.5855 77.0399L99.5834 77.0487L99.5788 77.0673C99.0754 79.1099 98.5547 81.223 98.073 83.8933C98.0352 84.1026 97.8524 84.2497 97.6469 84.2497C97.6214 84.2497 97.5954 84.2477 97.5694 84.2431C97.3335 84.2006 97.177 83.9748 97.2195 83.7392C97.7073 81.0356 98.2326 78.9051 98.7406 76.8448L98.7415 76.8414C99.268 74.7059 99.765 72.6893 100.119 70.3726C100.277 69.3442 100.455 68.1788 100.173 67.1432C99.9309 66.2515 99.1815 65.322 98.2185 65.2711C98.1658 65.2683 98.1159 65.2563 98.0702 65.2366L91.1872 79.787C89.6843 82.9661 89.1116 86.4919 89.5308 89.9836L89.8598 92.7088C89.9946 93.837 89.8092 94.9744 89.3244 95.9981L89.1058 96.459H98.8676Z" fill="#282F45"/>
<path d="M100.994 96.8915H85.9643C84.5942 96.8915 83.4837 98.002 83.4837 99.3721V105.066H103.475V99.3721C103.475 98.0023 102.364 96.8915 100.994 96.8915Z" fill="#FC6802" fill-opacity="0.2"/>
<path d="M100.994 96.4578H85.9643C84.3574 96.4578 83.05 97.7649 83.05 99.3721V105.066C83.05 105.305 83.244 105.499 83.4837 105.499H103.475C103.714 105.499 103.908 105.305 103.908 105.066V99.3721C103.908 97.7652 102.601 96.4578 100.994 96.4578ZM103.041 104.632H83.9173V99.3724C83.9173 98.2437 84.8356 97.3255 85.9643 97.3255H100.994C102.123 97.3255 103.041 98.2437 103.041 99.3724V104.632Z" fill="#282F45"/>
<path d="M99.3287 99.1076C98.2954 99.1076 97.4575 99.9452 97.4575 100.979C97.4575 102.012 98.2954 102.85 99.3287 102.85C100.362 102.85 101.2 102.012 101.2 100.979C101.2 99.9455 100.362 99.1076 99.3287 99.1076Z" fill="white"/>
<path d="M99.3287 98.674C98.0577 98.674 97.0238 99.7078 97.0238 100.979C97.0238 102.25 98.0577 103.284 99.3287 103.284C100.6 103.284 101.634 102.25 101.634 100.979C101.634 99.7081 100.6 98.674 99.3287 98.674ZM99.3287 102.417C98.5362 102.417 97.8912 101.772 97.8912 100.979C97.8912 100.186 98.5362 99.5413 99.3287 99.5413C100.121 99.5413 100.766 100.186 100.766 100.979C100.766 101.772 100.121 102.417 99.3287 102.417Z" fill="#282F45"/>
<path fill-rule="evenodd" clip-rule="evenodd" d="M76.4173 41.5C76.4173 41.5 85.9879 50.0069 76.4173 59.8901C66.8467 50.0069 76.4173 41.5 76.4173 41.5ZM61.328 53.4981C61.328 53.4981 73.9944 52.6137 74.0809 66.5C60.4605 66.414 61.328 53.4981 61.328 53.4981ZM91.8614 53.4981C91.8614 53.4981 79.195 52.6137 79.1085 66.5C92.731 66.414 91.8614 53.4981 91.8614 53.4981Z" fill="#FC6802"/>
</svg>
