<svg width="144" height="141" viewBox="0 0 144 141" fill="none" xmlns="http://www.w3.org/2000/svg">
<path d="M8.50577 34.1505C1.95147 46.1051 -0.3916 58.8486 1.20723 70.5951C1.26791 76.0145 1.95809 81.4265 3.31624 86.6824C7.96956 104.716 20.2298 120.63 36.3567 129.973C39.1151 131.568 41.9759 132.984 44.9408 134.161C46.2942 134.696 47.6855 135.102 49.0615 135.532C52.2402 136.528 55.2469 137.919 58.493 138.767C61.629 139.577 64.8255 140.152 68.049 140.476C75.297 141.209 82.6499 140.737 89.7598 139.195C96.816 137.666 103.638 135.098 109.942 131.588C116.231 128.082 122.003 123.643 126.918 118.38C132.049 112.888 136.195 106.495 139.115 99.5614C141.706 93.3958 143.347 86.7667 143.501 80.0573C143.549 78.0112 143.131 76.4863 142.896 74.5369C142.562 71.703 142.068 68.8878 141.423 66.1012C141.043 64.4567 140.609 62.8151 140.126 61.2009C140.072 55.409 139.142 49.7805 137.396 44.5307C132.9 30.9803 123.028 20.2026 110.583 12.8123C107.502 10.9827 104.261 9.36057 100.887 7.93723C100.533 7.78949 100.095 8.04066 99.7539 8.4259C96.8167 6.81911 93.708 5.43879 90.4661 4.29594C77.417 -0.302461 61.8376 -1.16836 46.6175 3.27437C38.9197 5.51692 31.3856 9.20294 24.9301 14.3301C17.9933 19.8424 12.5216 26.8189 8.50577 34.1505ZM131.572 37.1748C134.386 42.1564 136.37 47.6808 137.406 53.5017C136.915 52.2987 136.39 51.1091 135.841 49.9234C131.935 41.5686 126.625 33.8624 120.147 27.2973C117.347 22.8293 113.859 18.8168 109.813 15.3467C118.888 20.8684 126.486 28.1693 131.572 37.1748ZM36.2781 9.09069C50.6386 2.22196 66.7412 1.18878 80.3625 4.0205C91.0261 6.23234 100.614 10.8422 108.211 17.3732C107.306 16.7466 106.395 16.144 105.483 15.5607C101.025 12.7202 96.2517 10.3918 91.2822 8.60365C81.3907 5.05805 70.7159 3.68334 60.2791 4.80037C58.4579 4.99421 56.6537 5.26612 54.852 5.61071C48.5365 6.82129 42.4064 8.92902 36.6639 11.8102C32.5093 13.8989 28.5552 16.3914 24.8949 19.2475C20.5305 22.6505 16.5666 26.5612 13.1363 30.9115C12.3656 31.887 11.9329 32.7339 11.4486 33.8452C10.3709 36.3012 8.71405 38.5486 7.56406 40.9973C6.26854 43.7703 5.16377 46.6369 4.26528 49.5639C4.0287 50.3303 3.80149 51.1068 3.59362 51.8839C4.07632 49.4122 4.72903 46.9221 5.56017 44.4527C7.95238 37.3459 11.7856 30.2888 16.9573 24.0912C22.2041 17.8138 28.7856 12.6813 36.2778 9.10037L36.2781 9.09069Z" fill="#F8F6F2"/>
<rect x="110.5" y="11" width="33" height="33" rx="16.5" fill="#82B019"/>
<rect x="110.5" y="11" width="33" height="33" rx="16.5" stroke="white"/>
<path d="M123.12 32.412L127.248 28.028C127.589 27.6653 127.867 27.34 128.08 27.052C128.293 26.764 128.448 26.492 128.544 26.236C128.64 25.98 128.688 25.7187 128.688 25.452C128.688 24.9507 128.523 24.5613 128.192 24.284C127.872 23.996 127.461 23.852 126.96 23.852C126.427 23.852 125.957 23.9853 125.552 24.252C125.147 24.5187 124.784 24.9347 124.464 25.5L123.184 24.444C123.621 23.6867 124.16 23.116 124.8 22.732C125.44 22.3373 126.181 22.14 127.024 22.14C127.717 22.14 128.325 22.2787 128.848 22.556C129.371 22.8333 129.776 23.2227 130.064 23.724C130.352 24.2147 130.496 24.7853 130.496 25.436C130.496 25.9053 130.437 26.3267 130.32 26.7C130.213 27.0627 130.027 27.4307 129.76 27.804C129.493 28.1667 129.125 28.5933 128.656 29.084L125.488 32.364L123.12 32.412ZM123.12 33.5V32.412L124.704 31.852H130.72V33.5H123.12Z" fill="white"/>
<path d="M47.1346 61.258C47.0883 60.9268 47.2108 60.5943 47.4608 60.3722L71.1474 39.3296C71.4566 39.055 71.903 38.999 72.2704 39.1887L99.2783 53.1359C99.5667 53.2849 99.7649 53.5646 99.8098 53.8862L104.37 86.5607C104.446 87.1078 104.065 87.6131 103.518 87.6894L52.8207 94.758C52.2738 94.8342 51.7685 94.4527 51.6922 93.9058L47.1346 61.258Z" fill="#FC6802" fill-opacity="0.2" stroke="#282F45" stroke-miterlimit="10" stroke-linejoin="round"/>
<path d="M91.7461 44.9485C91.5933 43.8545 90.5826 43.0916 89.4887 43.2443L54.1429 48.1804C53.0489 48.3332 52.286 49.3439 52.4387 50.4378L57.2355 84.7861C57.3883 85.88 58.399 86.643 59.4929 86.4902L94.8387 81.5542C95.9326 81.4014 96.6956 80.3907 96.5428 79.2968L91.7461 44.9485Z" fill="white" stroke="#282F45" stroke-miterlimit="10"/>
<path d="M47.1367 61.279L75.6932 77.9562C76.0923 78.1893 76.5991 78.1185 76.9191 77.7851L99.8144 53.9246L104.446 87.112C104.522 87.659 104.141 88.1643 103.594 88.2406L52.897 95.3184C52.35 95.3948 51.8447 95.0132 51.7684 94.4662L47.1367 61.279Z" fill="white" stroke="#282F45" stroke-miterlimit="10" stroke-linejoin="round"/>
<path d="M73.8613 73.7251C74.8185 72.7372 76.325 72.5269 77.5162 73.2149L103.539 88.2449L52.9421 95.3142L73.8613 73.7251Z" fill="white" stroke="#282F45" stroke-miterlimit="10" stroke-linejoin="round"/>
<path d="M81.5543 53.8626C79.4544 52.2758 76.4804 52.6939 74.8936 54.7937L73.9719 56.0195L72.7462 55.0978C70.6463 53.511 67.6723 53.9291 66.0855 56.029C64.4987 58.1289 64.9168 61.1029 67.0166 62.6897L68.2424 63.6114L75.8343 69.3409L81.5638 61.749L82.4855 60.5233C84.0723 58.4234 83.6542 55.4494 81.5543 53.8626Z" fill="#FC6802"/>
<path d="M89.0254 101.044L88.6491 102.735C88.4695 103.525 87.6869 104.023 86.8984 103.848L85.2069 103.472C84.418 103.296 83.9204 102.514 84.0957 101.726L84.4694 100.031C84.6446 99.2424 85.4276 98.7447 86.2201 98.9172L87.9146 99.2975C88.7027 99.473 89.2007 100.256 89.0254 101.044Z" fill="#FC6802" fill-opacity="0.2"/>
<path d="M42.8131 68.1885L42.5161 69.5406C42.3746 70.1729 41.7566 70.5706 41.1341 70.4304L39.7987 70.1298C39.1761 69.9896 38.7834 69.3638 38.9218 68.734L39.2168 67.3789C39.3552 66.7486 39.9733 66.3509 40.5988 66.489L41.9362 66.7927C42.5582 66.9324 42.951 67.5582 42.8131 68.1885Z" fill="#FC6802" fill-opacity="0.2"/>
<path d="M105.08 37.7571L104.798 39.0411C104.663 39.6414 104.076 40.0193 103.485 39.8862L102.217 39.6008C101.626 39.4677 101.253 38.8735 101.384 38.2751L101.664 36.9881C101.795 36.3897 102.382 36.0119 102.976 36.1429L104.246 36.4314C104.838 36.564 105.211 37.1582 105.08 37.7571Z" fill="#FC6802" fill-opacity="0.2"/>
</svg>
