<svg width="180" height="96" viewBox="0 0 180 96" fill="none" xmlns="http://www.w3.org/2000/svg">
<path d="M48.9967 44.1347C47.3767 44.1347 47.3091 46.5713 47.3091 47.7553C47.3091 48.9388 47.5792 51.0978 48.7938 51.0277C50.0764 51.0277 50.2788 48.3122 50.2788 47.4072C50.2788 46.502 50.1439 44.3434 48.9967 44.1347Z" fill="#EB0029"/>
<path d="M84.0945 48.4515C84.2292 47.268 84.6342 45.3878 85.8494 45.4575C86.7622 45.5923 86.6672 47.2231 86.5986 48.4007L86.5917 48.5211C86.5243 49.705 86.2544 51.7939 85.0393 51.7939C84.0919 51.7939 83.9597 49.6349 84.0945 48.4515Z" fill="#EB0029"/>
<path d="M92.9368 46.9199L92.8012 49.7742C94.0164 49.6349 94.6235 48.7304 94.6235 48.3122C94.6235 47.8945 94.2858 46.9199 92.9368 46.9199Z" fill="#EB0029"/>
<path d="M117.842 45.3183C116.799 45.5716 116.816 47.0904 116.827 48.1491C116.829 48.2551 116.83 48.3564 116.83 48.4515C116.83 49.4966 117.302 51.6543 118.381 51.5847C119.462 51.5155 119.596 49.0785 119.394 47.9642C119.381 47.8932 119.369 47.8202 119.355 47.7458L119.355 47.7439C119.162 46.651 118.916 45.2529 117.842 45.3183Z" fill="#EB0029"/>
<path fill-rule="evenodd" clip-rule="evenodd" d="M147 64.5355L139.981 57.2941C142.681 52.0023 142.141 43.7866 138.361 40.4443H135.256L138.901 35.1525L135.661 30H126.886L124.322 33.7599L128.641 40.4443H117.572V33.0635H98.2685L96.2437 36.5446L103.668 37.2411V55.8145C102.847 56.946 102.024 57.5721 101.27 57.6325C100.792 57.6699 100.431 57.4765 100.192 57.2813L100.833 44.0647C97.8634 44.3432 93.6791 42.115 93.5439 38.3553L73.4298 37.2411L72.3499 56.5984L72.3607 56.5988C71.6995 57.2491 71.1278 57.547 70.6571 57.4783C69.7773 57.3501 69.1648 55.9495 68.624 54.7129L68.6228 54.7103C68.5093 54.4504 68.3996 54.2072 68.2895 53.9736L68.0304 36.1968L69.6506 36.0573L69.3807 32.7152L33 36.0577L33.2698 39.3302L35.2274 39.1908L35.4975 57.6422L40.7621 57.1553C38.4671 59.1746 39.2099 65.2321 42.7869 65.3718C46.364 65.5106 48.5916 60.01 46.9042 56.6675L53.5184 56.0414C51.8312 57.573 51.8985 64.3271 55.7458 64.6056C59.5933 64.8841 62.3608 58.6869 60.4705 55.3448L67.7545 54.7623C67.7688 54.7948 67.7831 54.8268 67.7974 54.8588C67.8132 54.8941 67.829 54.9295 67.8449 54.9654C67.8578 54.9946 67.8708 55.0242 67.884 55.0545C68.511 56.4886 69.2218 58.1141 70.5436 58.3057C71.4193 58.4335 72.3702 57.881 73.4419 56.6358L76.3321 56.7376C73.9696 57.3641 73.0922 66.1376 77.8845 65.9984C82.6768 65.8587 84.0267 59.1746 82.6094 57.0156L88.4139 57.3641C85.7138 59.7311 86.5243 65.8587 90.0337 65.7194C94.6231 65.5106 95.1632 59.2434 93.9481 57.5726L99.7263 57.9612C100.192 58.3278 100.757 58.5111 101.331 58.4652C102.3 58.3881 103.265 57.7105 104.207 56.4596H109.607C107.448 57.8515 107.448 65.6498 112.038 65.5106C116.628 65.3718 117.842 59.1046 116.762 56.4596H120.542L121.216 60.0796H126.886C126.211 62.1686 127.021 65.5106 129.181 65.3718C131.341 65.2321 133.366 62.1686 132.691 60.0796H136.336V64.5351L147 64.5355ZM48.7623 41.1353C48.6721 41.1375 48.5999 41.1391 48.5599 41.1398C48.6301 41.1384 48.6978 41.1368 48.7623 41.1353ZM38.9396 44.9702L36.8475 45.1789L36.5774 41.9759L44.4746 40.305L44.4069 43.5775L42.9895 44.1345L43.5295 53.3255L40.8973 53.2559L38.9396 44.9702ZM44.4067 60.5669L44.3392 62.7259L42.9221 61.6116L41.3022 62.8643L41.7071 60.9146L40.4921 59.5919L42.2469 59.2433L43.0568 57.0857L43.8673 58.8961L45.6217 59.1046L44.4067 60.5669ZM48.9289 53.9525C46.2965 54.0217 44.4744 51.9327 44.0018 48.1034C43.5293 44.2739 46.2965 41.2102 48.5239 41.1409C51.5614 41.0712 52.9788 43.4387 53.3158 46.7802C53.6538 50.1231 51.5614 53.8833 48.9289 53.9525ZM49.9417 38.8427L53.9911 38.2856L55.2735 41.2102L56.7586 37.3805L59.8635 38.3553L57.9732 44.3432L57.6357 50.888L54.5313 51.0277L54.1935 45.5968L49.9417 38.8427ZM57.9734 59.5919L58.1084 61.4724L56.6913 60.4973L54.5986 60.9851L55.4086 58.8961L54.5314 57.2249L56.2186 57.2941L57.6357 55.5537L57.8384 57.8515L59.3232 58.4084L57.9734 59.5919ZM63.9132 52.4205C62.226 52.6293 60.8757 52.2813 59.4584 50.61L60.4032 47.9642C60.8757 48.5907 62.698 49.9835 63.3731 49.1481C64.0479 48.3122 62.4955 46.7108 61.416 45.8753C60.3356 45.0397 59.256 44.204 59.3233 42.1152C59.3908 40.0267 61.8206 39.0515 62.4278 39.0515C62.4767 39.0515 62.53 39.0506 62.5872 39.0496C63.2407 39.0386 64.405 39.019 65.398 40.2353L65.1956 42.2547C62.6981 41.0712 62.6981 42.7421 63.7783 43.8561C66.4519 46.4913 66.4582 47.2388 66.4674 48.3299C66.4686 48.4783 66.4699 48.6332 66.478 48.8C66.5455 50.1923 65.6004 52.2112 63.9132 52.4205ZM74.1048 52.5593L75.05 41.0014L82.0697 40.7922L81.5968 44.0649L78.3573 44.204L78.2226 45.8753L80.1118 45.7361L79.7072 48.2426L77.615 48.7299L76.6702 52.8377L74.1048 52.5593ZM79.9097 61.3327L79.9766 63.5609L78.087 62.5863L75.5898 63.2824L76.9397 61.0547L75.9275 59.4531H78.087L80.0444 57.7814L80.1118 59.5227L81.1918 59.8703L79.9097 61.3327ZM84.9719 54.3006C82.6772 54.2301 80.652 52.0023 80.9893 48.1034C81.3274 44.2042 84.0271 42.5331 86.1193 42.7421L86.1271 42.7437C86.1321 42.7448 86.1366 42.7457 86.1412 42.7467C88.4884 43.2457 89.5615 45.8148 89.4939 48.6608C89.4265 51.5155 87.2666 54.3698 84.9719 54.3006ZM91.789 62.447V64.2571L90.304 62.7951L88.2118 63.0736L89.4939 61.0547L88.2792 59.5227L90.2362 59.7311L91.856 57.9911L92.0589 60.4282L93.2063 61.6116L91.789 62.447ZM95.231 51.5155L95.3658 55.6233L93.2736 55.5537L92.4635 51.9327H92.0589L91.5183 54.4398L89.1562 54.3006L90.5735 44.2739C94.2858 44.413 96.0951 44.5526 97.0533 47.4072C97.6609 49.2177 95.9733 51.2366 95.231 51.5155ZM108.325 46.3627L105.625 47.1288L105.153 44.2042L113.455 42.0457L113.86 44.8309L112.24 45.8058L112.983 52.699L110.216 53.5344L108.325 46.3627ZM113.05 60.8454L112.51 63.6305L111.362 61.7509L109.743 62.3078L110.688 60.0796L109.811 58.0603L111.632 58.3392L112.645 56.3199L113.117 58.7565L115.143 59.5919L113.05 60.8454ZM118.719 54.1609C115.884 54.509 114.265 51.7239 113.792 49.0088C113.32 46.293 115.007 42.6028 117.707 42.3938C119.867 42.185 121.487 44.2739 121.959 46.9199C122.432 49.5653 121.554 53.8128 118.719 54.1609ZM124.457 54.4398V45.8753H122.23V42.7419L130.531 42.6028L129.789 45.8058H128.304L127.089 54.4398H124.457ZM130.261 62.3074L130.058 63.5609L129.046 62.377L127.629 62.5863L128.709 60.8454L128.237 59.383L129.856 60.0096L131.207 59.3138L130.869 60.9851L131.68 61.8892L130.261 62.3074ZM133.839 57.1597C132.139 57.1848 130.832 56.694 129.592 54.8787L130.799 52.3491C131.206 53.0237 132.878 54.605 133.633 53.8472C134.389 53.088 133.008 51.3287 132.019 50.3809C131.029 49.434 130.039 48.4858 130.318 46.4159C130.597 44.346 133.112 43.6384 133.716 43.7038C133.765 43.7091 133.819 43.7139 133.876 43.7192C134.527 43.7788 135.686 43.8848 136.55 45.2013L136.145 47.1874C133.78 45.7413 133.611 47.4033 134.572 48.6277C136.965 51.5373 136.895 52.2808 136.793 53.3668C136.779 53.5144 136.765 53.6683 136.756 53.8349C136.682 55.2272 135.538 57.1333 133.839 57.1597Z" fill="#EB0029"/>
<path fill-rule="evenodd" clip-rule="evenodd" d="M142.721 56.8174H142.417L142.416 57.4902H142.235V55.9745H142.799C142.966 55.9745 143.087 56.0106 143.163 56.0824C143.239 56.1543 143.278 56.2578 143.278 56.3944C143.278 56.46 143.268 56.5178 143.248 56.5671C143.229 56.6164 143.203 56.6579 143.168 56.6922C143.134 56.7262 143.095 56.753 143.051 56.7733C143.006 56.7931 142.959 56.8081 142.909 56.8174L143.346 57.4906H143.134L142.721 56.8174ZM142.748 56.1335H142.417L142.416 56.6587H142.656C142.684 56.6587 142.712 56.6583 142.74 56.6573C142.766 56.6564 142.792 56.6552 142.818 56.6535C142.871 56.6499 142.919 56.6398 142.96 56.6235C143.001 56.6068 143.034 56.5808 143.059 56.5442C143.084 56.5076 143.096 56.4578 143.096 56.3944C143.096 56.3402 143.087 56.2966 143.067 56.264C143.048 56.2309 143.022 56.2045 142.989 56.1842C142.956 56.1644 142.919 56.1512 142.878 56.1441C142.837 56.1371 142.794 56.1335 142.748 56.1335Z" fill="#EB0029"/>
<path fill-rule="evenodd" clip-rule="evenodd" d="M141.523 57.2492C141.458 57.0905 141.426 56.9183 141.426 56.7328C141.426 56.5495 141.458 56.3781 141.523 56.2181C141.588 56.0582 141.677 55.919 141.791 55.8004C141.905 55.6819 142.04 55.5889 142.195 55.522C142.349 55.455 142.517 55.4215 142.697 55.4215C142.877 55.4215 143.044 55.455 143.199 55.522C143.354 55.5889 143.488 55.6819 143.602 55.8004C143.716 55.919 143.806 56.0582 143.871 56.2181C143.935 56.3781 143.968 56.5495 143.968 56.7328C143.968 56.9187 143.935 57.0905 143.871 57.2492C143.806 57.4078 143.716 57.5461 143.602 57.6633C143.488 57.781 143.354 57.8731 143.199 57.94C143.044 58.007 142.877 58.0409 142.697 58.0409C142.517 58.0409 142.349 58.007 142.195 57.94C142.04 57.8731 141.905 57.781 141.791 57.6633C141.677 57.5457 141.588 57.4078 141.523 57.2492ZM141.928 55.9361C141.832 56.037 141.758 56.156 141.704 56.2922C141.651 56.4283 141.624 56.5755 141.624 56.7328C141.624 56.8905 141.651 57.0372 141.704 57.1734C141.758 57.31 141.832 57.4285 141.928 57.5294C142.024 57.6303 142.137 57.7105 142.268 57.7691C142.399 57.8277 142.542 57.8572 142.697 57.8572C142.849 57.8572 142.991 57.8281 143.122 57.7691C143.253 57.7105 143.367 57.6303 143.462 57.5294C143.558 57.4285 143.633 57.31 143.688 57.1734C143.742 57.0372 143.77 56.8901 143.77 56.7328C143.77 56.5755 143.742 56.4283 143.688 56.2922C143.633 56.156 143.558 56.037 143.462 55.9361C143.367 55.8352 143.253 55.7551 143.122 55.6965C142.991 55.6378 142.849 55.6083 142.697 55.6083C142.542 55.6083 142.399 55.6378 142.268 55.6965C142.137 55.7551 142.024 55.8352 141.928 55.9361Z" fill="#EB0029"/>
</svg>
