<svg width="180" height="96" viewBox="0 0 180 96" fill="none" xmlns="http://www.w3.org/2000/svg">
<g clip-path="url(#clip0_670_3325)">
<path d="M99.9692 35.0044L94.4104 60.9563H89.831L95.3792 35.0044H99.9692ZM88.0345 45.4655L90.2761 35.0044H85.6869L83.4449 45.4655H76.538L78.7792 35.0044H74.19L69.5254 56.7847C69.3256 56.8036 69.1169 56.8116 68.917 56.8116H58.7598C58.0476 56.8116 57.7431 56.4056 57.9332 55.5578L61.1823 40.4334C61.3724 39.591 61.8197 39.1777 62.5608 39.1777H67.4252C68.0238 39.1777 68.6893 39.2533 69.069 39.5154L70.0382 35.0334H62.1519C58.9787 35.0334 57.3349 36.8806 56.7744 39.5648L53.1638 56.4641C52.6028 59.1432 53.4203 60.9955 56.5935 60.9955H73.2212L75.7208 49.2671H82.6277L80.1292 60.9955H84.7086L87.2174 49.2671H87.2272L91.693 45.4924H88.0345V45.4655ZM125.87 57.0589H117.318L122.06 35.0044H117.47L112.747 57.0589H104.111L108.852 35.0044H104.273L98.7044 60.9563H126.155L127 56.8792C126.62 57.028 126.203 57.0589 125.87 57.0589Z" fill="black"/>
</g>
<defs>
<clipPath id="clip0_670_3325">
<rect width="74" height="26" fill="white" transform="translate(53 35)"/>
</clipPath>
</defs>
</svg>
