<svg width="24" height="24" viewBox="0 0 24 24" fill="none" xmlns="http://www.w3.org/2000/svg">
<path fill-rule="evenodd" clip-rule="evenodd" d="M3.45187 3.625H4.45187L4.50187 3.635C5.88803 3.66189 7.09921 4.57834 7.50187 5.905L7.70187 6.595H18.1319C19.0529 6.59919 19.9275 7.00003 20.5319 7.695C21.1346 8.39437 21.4013 9.32235 21.2619 10.235L20.6619 14.375C20.462 15.9619 19.1212 17.1575 17.5219 17.175H11.6419C10.2372 17.1698 9.00011 16.2491 8.59187 14.905L6.06187 6.375C5.86814 5.64318 5.20888 5.13133 4.45187 5.125H3.45187C3.03766 5.125 2.70187 4.78921 2.70187 4.375C2.70187 3.96079 3.03766 3.625 3.45187 3.625ZM10.0319 14.425C10.2442 15.137 10.8989 15.625 11.6419 15.625H17.5219C18.3496 15.616 19.0505 15.0122 19.1819 14.195L19.7819 10.045C19.8636 9.56193 19.7304 9.06727 19.4171 8.69058C19.1038 8.31389 18.6417 8.09272 18.1519 8.085H8.15187L10.0319 14.425Z" fill="#82B019"/>
<path d="M11.4119 18.375C10.8596 18.375 10.4119 18.8227 10.4119 19.375C10.4119 19.9273 10.8596 20.375 11.4119 20.375C11.9642 20.375 12.4119 19.9273 12.4119 19.375C12.4119 18.8227 11.9642 18.375 11.4119 18.375Z" fill="#82B019"/>
<path d="M17.4119 18.375C16.8596 18.375 16.4119 18.8227 16.4119 19.375C16.4119 19.9273 16.8596 20.375 17.4119 20.375C17.9642 20.375 18.4119 19.9273 18.4119 19.375C18.4119 18.8227 17.9642 18.375 17.4119 18.375Z" fill="#82B019"/>
</svg>
