<svg width="33" height="33" viewBox="0 0 33 33" fill="none" xmlns="http://www.w3.org/2000/svg">
<path fill-rule="evenodd" clip-rule="evenodd" d="M6.22792 15.0102C7.53782 14.5606 8.91624 13.963 9.97921 13.0977C11.2417 12.0701 11.7551 10.7465 12.0999 9.35333C12.5426 7.56342 12.7194 5.65673 13.2562 3.86392C13.4549 3.19815 13.8374 2.94648 14.0015 2.8348C14.4163 2.55267 14.8356 2.47726 15.2301 2.50555C15.6976 2.53818 16.3397 2.70861 16.7621 3.46359C16.8223 3.57165 16.9006 3.73629 16.9532 3.96184C16.9916 4.12719 17.0165 4.64428 17.0571 4.85751C17.1588 5.38258 17.2438 5.90768 17.3236 6.43566C17.5894 8.19293 17.7422 9.68546 18.5816 11.2999C19.7206 13.4916 20.8619 14.8325 22.4097 15.4265C23.9063 16.0009 25.6957 15.8929 27.982 15.4425C28.1995 15.3917 28.4148 15.3482 28.6279 15.3127C29.6359 15.143 30.5995 15.7804 30.7975 16.7479C30.9955 17.7147 30.3548 18.6568 29.3559 18.8693C29.1473 18.9135 28.9418 18.9556 28.7386 18.994C25.649 19.7308 22.0724 22.3606 19.9939 24.6633C19.3532 25.3733 18.4152 27.3583 17.4584 28.6245C16.7523 29.5586 15.9588 30.1744 15.2926 30.392C14.8461 30.5385 14.4697 30.516 14.1588 30.442C13.7071 30.3347 13.3323 30.099 13.0447 29.724C12.8881 29.5188 12.7428 29.2439 12.6735 28.8929C12.6404 28.7239 12.6366 28.2946 12.6374 28.1002C12.4424 27.454 12.2038 26.823 12.0299 26.171C11.6151 24.6154 10.8013 23.6305 9.83466 22.3294C8.93053 21.1117 7.95943 20.3466 6.53587 19.7359C6.35067 19.6924 4.85634 19.3399 4.32861 19.1376C3.55773 18.841 3.19034 18.3442 3.05709 18.0766C2.8305 17.6225 2.80718 17.2259 2.85235 16.8952C2.91935 16.4071 3.1467 15.9893 3.55021 15.6521C3.80014 15.4425 4.17354 15.2387 4.67341 15.1393C5.0596 15.0617 6.08413 15.0168 6.22792 15.0102ZM14.9944 12.4748C15.0637 12.6234 15.1375 12.7728 15.2158 12.9237C16.884 16.1336 18.7495 17.9257 21.0169 18.7953L21.093 18.8236C19.5761 19.9085 18.2029 21.1212 17.1535 22.2837C16.7214 22.7624 16.1493 23.7567 15.5312 24.7764C14.9696 23.0177 14.0512 21.7746 12.8964 20.219C12.0141 19.0317 11.0896 18.1382 9.95362 17.4101C10.8352 16.9742 11.676 16.4636 12.4085 15.8675C13.6281 14.8746 14.4343 13.7244 14.9944 12.4748Z" fill="#82B019"/>
</svg>
