<svg width="25" height="24" viewBox="0 0 25 24" fill="none" xmlns="http://www.w3.org/2000/svg">
<path fill-rule="evenodd" clip-rule="evenodd" d="M18.8167 15.925L19.0167 16.875C19.2062 17.6963 19.0191 18.5594 18.5064 19.2284C17.9937 19.8975 17.209 20.3027 16.3667 20.3333H8.63334C7.79099 20.3027 7.00631 19.8975 6.49363 19.2284C5.98095 18.5594 5.79381 17.6963 5.98334 16.875L6.18334 15.925C6.41337 14.639 7.51886 13.6939 8.82501 13.6667H16.175C17.4812 13.6939 18.5866 14.639 18.8167 15.925ZM16.3667 19.075C16.7898 19.0701 17.1881 18.874 17.45 18.5417V18.55C17.7714 18.1468 17.8966 17.6215 17.7917 17.1167L17.5917 16.1667C17.4807 15.4626 16.8872 14.9355 16.175 14.9083H8.82501C8.11281 14.9355 7.51931 15.4626 7.40834 16.1667L7.20834 17.1167C7.10597 17.6188 7.23106 18.1405 7.55001 18.5417C7.81195 18.874 8.21019 19.0701 8.63334 19.075H16.3667Z" fill="#82B019"/>
<path fill-rule="evenodd" clip-rule="evenodd" d="M12.9167 12H12.0833C10.2424 12 8.74999 10.5076 8.74999 8.66664V6.46664C8.74777 5.72335 9.04206 5.00987 9.56764 4.48429C10.0932 3.9587 10.8067 3.66442 11.55 3.66664H13.45C14.1933 3.66442 14.9068 3.9587 15.4323 4.48429C15.9579 5.00987 16.2522 5.72335 16.25 6.46664V8.66664C16.25 10.5076 14.7576 12 12.9167 12ZM11.55 4.91664C10.694 4.91664 10 5.6106 10 6.46664V8.66664C10 9.81723 10.9327 10.75 12.0833 10.75H12.9167C14.0673 10.75 15 9.81723 15 8.66664V6.46664C15 6.05555 14.8367 5.6613 14.546 5.37062C14.2553 5.07994 13.8611 4.91664 13.45 4.91664H11.55Z" fill="#82B019"/>
</svg>
