<svg width="12" height="12" viewBox="0 0 12 12" fill="none" xmlns="http://www.w3.org/2000/svg">
<path d="M5.82506 7.91715C5.28077 8.65421 4.81018 9.23819 4.40196 9.86752C3.38709 11.4323 1.94132 11.4437 1.20426 9.70877C0.71667 8.55783 0.540916 7.21979 0.501229 5.96113C0.47288 4.95193 0.94351 3.93705 1.04556 2.91084C1.19864 1.30633 2.1341 0.597617 3.55719 0.960476C4.85554 1.28932 5.91011 2.06038 5.48489 3.80664C5.22408 4.8612 4.12419 6.09719 5.93281 7.21412C6.31835 5.49621 6.65849 3.9087 7.02135 2.3382C7.36153 0.875427 8.07591 -0.0827396 9.78815 0.450209C11.1319 0.869765 11.8009 2.40057 11.37 3.81232C10.8541 5.51322 10.5196 7.27081 9.94691 8.94904C9.6124 9.92422 8.9547 10.786 8.43876 11.6988C7.77541 10.9958 7.06105 10.3381 6.47141 9.57838C6.16524 9.18717 6.08586 8.6202 5.82506 7.9285V7.91715Z" fill="#82B019"/>
</svg>
