<svg width="33" height="33" viewBox="0 0 33 33" fill="none" xmlns="http://www.w3.org/2000/svg">
<path d="M16.7464 6.23747C17.7764 3.71815 19.4729 2.54203 21.2644 1.4952C24.3169 -0.285654 28.1069 -0.73583 31.057 1.59194C32.5614 2.71412 33.323 4.1866 32.8701 6.23879C32.2443 9.4172 31.3111 12.5038 29.9166 15.4528C28.2768 19.1024 25.9149 22.3683 23.3752 25.4464C21.9878 27.1523 20.7075 29.0584 18.7986 30.2721C18.3978 30.489 18.3994 30.927 18.2474 31.3191C17.722 32.9458 16.7667 33.3336 15.2052 32.7328C13.3362 32.0402 11.9372 30.6803 10.597 29.237C7.57275 26.0457 5.1843 22.304 3.06707 18.4413C1.66308 15.7674 0.38867 12.9976 0.0816435 9.91093C-0.235801 7.19128 0.322476 4.90138 2.64265 3.10378C4.12666 1.96516 5.60025 1.1936 7.39505 1.02273C9.83936 0.810196 12.0504 1.36933 13.9226 2.93785C14.8829 3.86393 15.8899 4.63566 16.7464 6.23747ZM3.16338 9.58586C3.47584 10.9916 3.70539 12.3389 4.33573 13.4693C5.10938 15.0127 5.88302 16.5561 6.64459 18.0286C8.5131 21.7161 11.0174 24.8531 13.7221 27.8816C15.786 30.1467 16.1988 30.0008 18.2099 27.6734C19.656 25.8841 21.0192 24.0363 22.5603 22.3763C24.3484 20.4535 25.4146 18.1469 26.5515 15.8279C27.6419 13.6631 28.4955 11.394 29.3492 9.12496C29.7 8.18647 29.8262 7.21463 29.8937 6.32617C29.9612 5.43771 29.533 4.6368 28.7626 3.96935C27.1632 2.71786 25.5343 3.00553 23.8465 3.37663C21.2381 3.91033 18.9179 5.70792 18.9175 8.70284C18.9104 9.94585 18.0863 10.6757 16.9531 10.8759C16.4573 10.9634 15.9253 10.8383 15.6282 10.3794C15.4262 10.0499 15.2828 9.63691 15.0808 9.30737C13.0377 6.30811 10.7838 3.78434 6.67426 4.07182C4.72573 4.1968 3.07756 5.65656 3.13254 7.69211C3.09962 8.35533 2.92508 9.04359 3.16338 9.58586Z" fill="#FC6802"/>
</svg>
